<svg id="Layer_1" data-name="Layer 1" xmlns="http://www.w3.org/2000/svg" width="543.45" height="299.91" viewBox="0 0 543.45 299.91">
  <g fill="white">
    <path d="M207.06,344.22c-10.08,0-18-8.17-18-18.52s7.93-18.45,18-18.45a19.33,19.33,0,0,1,14.05,6.67l5-6.45a27.29,27.29,0,0,0-19.16-8.1,26.08,26.08,0,0,0-26.52,26.4c0,15.08,11.46,26.7,26.23,26.7a28.11,28.11,0,0,0,19.53-8.62l-5-5.85A20.4,20.4,0,0,1,207.06,344.22Z" transform="translate(-44.77 -52.57)"/>
    <path d="M259.21,299.59,236.94,352.1h8.87l4.82-11.85h25.43l4.83,11.85H290l-22-52.51Zm-5.41,32.78L263.31,309l9.51,23.33Z" transform="translate(-44.77 -52.57)"/>
    <polygon points="287.69 281.91 271.06 247.03 260.97 247.03 260.97 299.54 268.97 299.54 268.97 260.31 284.89 294.06 290.44 294.06 306.36 260.31 306.43 299.54 314.28 299.54 314.28 247.03 304.26 247.03 287.69 281.91"/>
    <path d="M401.53,299.59h-20.1V352.1h8.5V336.28h11.6c12.68,0,20-6.91,20-18.76C421.49,306.12,414.21,299.59,401.53,299.59Zm-.35,28.74H389.93V307.55h11.25c7.77,0,12.17,3.29,12.17,10.2C413.35,324.87,409,328.33,401.18,328.33Z" transform="translate(-44.77 -52.57)"/>
    <path d="M473.35,330.35c0,8.93-5.11,14.17-13.33,14.17s-13.55-5.32-13.55-14.17V299.59H438v30.76c0,13.73,8.36,22.13,22,22.13s21.9-8.4,21.9-22.13V299.59h-8.5Z" transform="translate(-44.77 -52.57)"/>
    <path d="M510.79,313c0-3.52,3.25-5.48,8.22-5.48,3.82,0,9.29,1.43,14.77,4.88l3.53-7.8a32,32,0,0,0-17.65-5.4c-10.95,0-18.37,5.62-18.37,14.62,0,18.68,27.23,12.16,27.23,23.86,0,4.05-3.53,6.38-9.44,6.38-5.4,0-11.89-2.71-17.08-7.66l-3.67,7.66a30.35,30.35,0,0,0,20.6,8.32c11.1,0,19-5.77,19-15.15C538,318.35,510.79,324.5,510.79,313Z" transform="translate(-44.77 -52.57)"/>
    <path d="M392.91,266.82A65.86,65.86,0,1,0,326.74,201,66,66,0,0,0,392.91,266.82Zm0-100.36A34.5,34.5,0,1,1,358.24,201,34.58,34.58,0,0,1,392.9,166.46Z" transform="translate(-44.77 -52.57)"/>
    <path d="M180.94,266.82h31.5v-64c0-19.44,15.52-35.2,34.66-35.2s34.66,15.76,34.66,35.2v64h31.51v-64c0-37.12-29.63-67.21-66.17-67.21s-66.17,30.09-66.17,67.21Z" transform="translate(-44.77 -52.57)"/>
    <path d="M109.51,203.65a33.79,33.79,0,0,0-2.34-12.42L85.84,135.6H51.93L89.67,234C101.39,229.23,109.51,217.55,109.51,203.65Z" transform="translate(-44.77 -52.57)"/>
    <polygon points="493.12 214.25 543.45 83.03 509.54 83.03 459.2 214.25 493.12 214.25"/>
    <path d="M511.23,203.65a33.58,33.58,0,0,0-2.34-12.42L487.57,135.6H453.65L491.4,234C503.11,229.23,511.23,217.55,511.23,203.65Z" transform="translate(-44.77 -52.57)"/>
    <polygon points="107.79 83.03 24.73 299.58 58.65 299.58 141.71 83.03 107.79 83.03"/>
  </g>
  <g fill="white">
    <path d="M84.59,92.17H61.18L56.72,103H44.77l22.46-50.4H78.75L101.29,103H89.05Zm-3.68-8.86-8-19.3-8,19.3Z" transform="translate(-44.77 -52.57)"/>
    <path d="M106.54,52.57h11.67V103H106.54Z" transform="translate(-44.77 -52.57)"/>
    <path d="M161.91,103l-12.17-17.5-12,17.5H124.4l18.65-25.63L125.33,52.57h13.25l11.59,16.34,11.38-16.34h12.6L156.58,76.9,175.38,103Z" transform="translate(-44.77 -52.57)"/>
  </g>
</svg>
